<?xml version="1.0" encoding="UTF-8" standalone="no"?>
<!-- Created with Inkscape (http://www.inkscape.org/) -->

<svg
   xmlns:dc="http://purl.org/dc/elements/1.1/"
   xmlns:cc="http://creativecommons.org/ns#"
   xmlns:rdf="http://www.w3.org/1999/02/22-rdf-syntax-ns#"
   xmlns:svg="http://www.w3.org/2000/svg"
   xmlns="http://www.w3.org/2000/svg"
   xmlns:sodipodi="http://sodipodi.sourceforge.net/DTD/sodipodi-0.dtd"
   xmlns:inkscape="http://www.inkscape.org/namespaces/inkscape"
   width="460"
   height="460"
   viewBox="0 0 460 460"
   version="1.1"
   id="svg8"
   sodipodi:docname="dfhack.svg"
   inkscape:version="0.92.4 (5da689c313, 2019-01-14)">
  <defs
     id="defs2" />
  <sodipodi:namedview
     id="base"
     pagecolor="#ffffff"
     bordercolor="#666666"
     borderopacity="1.0"
     inkscape:pageopacity="0.0"
     inkscape:pageshadow="2"
     inkscape:zoom="7.9195959"
     inkscape:cx="132.94037"
     inkscape:cy="89.45604"
     inkscape:document-units="px"
     inkscape:current-layer="layer1"
     showgrid="false"
     units="px"
     inkscape:window-width="1862"
     inkscape:window-height="1016"
     inkscape:window-x="58"
     inkscape:window-y="27"
     inkscape:window-maximized="1" />
  <metadata
     id="metadata5">
    <rdf:RDF>
      <cc:Work
         rdf:about="">
        <dc:format>image/svg+xml</dc:format>
        <dc:type
           rdf:resource="http://purl.org/dc/dcmitype/StillImage" />
        <dc:title></dc:title>
      </cc:Work>
    </rdf:RDF>
  </metadata>
  <g
     inkscape:label="Layer 1"
     inkscape:groupmode="layer"
     id="layer1"
     transform="translate(0,-175.29165)">
    <path
       style="fill:#000000"
       d="m 412.25,605.53291 c -4.69996,-1.2653 -7.96403,-1.55161 -12.75,-3.24125 0,0 -1.40773,-0.53565 -2.40538,-1 -4.94987,-2.3039 -11.36422,-6.1502 -13.23225,-13.81051 -0.49484,-2.02922 -1.29601,-18.97439 -1.78037,-37.65593 -0.59896,-23.1014 -1.23273,-34.0838 -1.98133,-34.33334 C 379.4953,515.29009 379,513.86064 379,512.31532 c 0,-3.79711 -2.46088,-4.51997 -6.62539,-1.94616 -3.88178,2.39906 -5.37461,4.70382 -5.37461,8.29774 0,1.3787 -0.45,2.78484 -1,3.12476 -1.19466,0.73834 -1.26946,20.15821 -0.10088,26.19443 0.51318,2.65082 0.43098,4.57547 -0.22335,5.2298 -0.71381,0.71381 -0.68517,1.74041 0.0922,3.30556 0.62017,1.24862 1.35458,4.29521 1.63203,6.77021 0.27744,2.475 0.9974,8.25303 1.59989,12.84008 0.80181,6.10448 0.79712,8.69955 -0.0175,9.68114 -1.59785,1.92529 -9.63787,3.46249 -23.98239,4.58529 -6.875,0.53813 -14.77619,1.22192 -17.55819,1.51953 -8.55585,0.91528 -9.94296,-3.78123 -2.13291,-7.22163 5.28706,-2.329 8.6883,-6.10777 8.68988,-9.65441 6.7e-4,-1.5125 0.35736,-2.75 0.79264,-2.75 1.41246,0 2.85143,-17.30721 2.08021,-25.01978 -0.41139,-4.11412 -0.7758,-16.36772 -0.80981,-27.23022 -0.0364,-11.63365 -0.44861,-19.75 -1.00302,-19.75 -0.51766,0 -1.15807,-5.2875 -1.42314,-11.75 -0.81868,-19.95986 -2.25548,-25.25 -6.8579,-25.25 -0.97777,0 -1.77776,-0.45 -1.77776,-1 0,-0.55 -0.675,-1 -1.5,-1 -1.63702,0 -2.19908,10.21265 -1.57993,28.70727 0.34035,10.16634 0.48558,9.85062 -6.92007,15.04285 -6.38604,4.47737 -10.27094,8.28296 -11.99472,11.74988 -2.27608,4.57771 -4.60751,6.29654 -7.74964,5.71338 -3.83758,-0.71224 -4.22295,-1.66439 -4.24033,-10.47695 -0.009,-4.41816 -0.54987,-8.61954 -1.25586,-9.75 -0.98739,-1.58107 -0.98739,-2.39179 0,-3.97286 1.86903,-2.99278 1.71576,-25.61724 -0.17846,-26.34412 -1.56998,-0.60245 -5.58099,2.4145 -5.58099,4.19785 0,0.62298 -0.3375,1.13555 -0.75,1.13902 -1.00599,0.008 -4.25,5.79023 -4.25,7.57472 0,0.78043 -0.40273,1.41896 -0.89496,1.41896 -2.1455,0 -4.28213,24.10224 -3.02413,34.11372 0.57958,4.61245 1.28488,11.31128 1.56734,14.88628 0.28247,3.575 0.92716,6.9275 1.43266,7.45 0.5055,0.5225 0.91909,2.18344 0.91909,3.69098 0,1.50754 0.41538,2.9977 0.92306,3.31147 0.50769,0.31377 1.21844,1.91532 1.57946,3.55902 0.36101,1.64369 0.98664,2.98853 1.39029,2.98853 0.40364,0 1.35188,1.575 2.10719,3.5 0.75531,1.925 1.7393,3.5 2.18665,3.5 0.44734,0 0.81335,0.5627 0.81335,1.25044 0,1.8905 7.07099,9.22392 10.70034,11.09747 1.76019,0.90865 4.12269,1.65209 5.25,1.65209 1.12731,0 2.04966,0.42754 2.04966,0.9501 0,0.52255 2.5875,1.08505 5.75,1.25 5.50602,0.28717 5.76392,0.42171 6.07808,3.17073 0.72143,6.31276 -0.1935,7.28898 -7.56245,8.06902 -7.98724,0.84549 -6.74684,0.85297 -25.98735,-0.15676 l -15.22171,-0.79883 -5.07617,-5.40679 c -3.33244,-3.5495 -5.47447,-6.89603 -6.23568,-9.74213 -0.63774,-2.38444 -1.5162,-4.33534 -1.95212,-4.33534 -0.43593,0 -0.7926,-0.56407 -0.7926,-1.25348 0,-0.68941 -1.575,-4.50011 -3.5,-8.46822 -1.94309,-4.0054 -3.5,-8.75952 -3.5,-10.6875 0,-1.91002 -0.45,-3.75088 -1,-4.0908 -0.55,-0.33992 -1,-1.49148 -1,-2.55902 0,-1.06754 -0.40077,-1.94098 -0.89059,-1.94098 -1.60591,0 -2.35005,-7.20466 -2.78873,-27 -0.41617,-18.77978 -0.34697,-19.67486 1.8736,-24.23445 1.26814,-2.60395 2.64322,-4.74145 3.05572,-4.75 0.4125,-0.009 0.75,-1.06971 0.75,-2.35813 0,-2.69287 6.81208,-16.65742 8.1257,-16.65742 0.48086,0 0.8743,-0.5627 0.8743,-1.25044 0,-1.7235 6.9464,-8.99216 10,-10.46393 1.45258,-0.70011 8.57501,-1.3706 17,-1.60035 16.12811,-0.43981 19.90448,-1.29325 24.97137,-5.64333 3.73654,-3.20793 7.83386,-4.55593 10.89494,-3.58438 1.44776,0.4595 2.07694,1.93265 2.59443,6.07452 0.55347,4.42984 1.038,5.46791 2.5522,5.46791 1.02796,0 2.14714,-0.45 2.48706,-1 0.34898,-0.56467 5.22195,-1 11.19372,-1 5.81663,0 13.40153,-0.52068 16.85534,-1.15707 5.64693,-1.04049 6.46124,-0.97548 8.08191,0.64518 1.54694,1.54694 1.77327,3.36661 1.59767,12.84504 -0.11252,6.07354 -0.66,11.49821 -1.21661,12.05482 -1.34076,1.34076 -1.29853,4.61203 0.0595,4.61203 0.58936,0 0.98955,1.0125 0.8893,2.25 -0.10024,1.2375 -0.13244,4.16631 -0.0716,6.50847 0.10678,4.10815 0.18974,4.21405 2.35,3 1.23163,-0.69216 2.97191,-2.04597 3.8673,-3.00847 0.89539,-0.9625 2.1377,-1.75 2.76069,-1.75 0.62298,0 1.1327,-0.36515 1.1327,-0.81144 0,-0.44629 0.94651,-1.8274 2.10336,-3.06913 1.60197,-1.71951 1.92424,-2.89675 1.35194,-4.93856 -0.41328,-1.47448 -0.93551,-8.19337 -1.16051,-14.93087 l -0.4091,-12.25 h 3.47425 c 4.78635,0 11.88682,-3.23001 15.5678,-7.0818 1.68974,-1.76816 3.07226,-3.59809 3.07226,-4.06651 0,-1.32354 3.78456,-1.00219 4.69098,0.39831 0.44496,0.6875 1.07439,8.45 1.39874,17.25 0.55561,15.07468 1.79309,21.46757 4.16028,21.4922 1.63288,0.017 0.60635,2.39865 -2,4.64023 -2.12709,1.82939 -3.92583,2.3654 -7.94098,2.36635 -2.85504,6.7e-4 -5.4691,0.45122 -5.80902,1.00122 -0.33992,0.55 -1.60398,1.01431 -2.80902,1.0318 -2.73723,0.0397 -6.10164,2.49472 -5.26781,3.84389 0.3429,0.55481 2.75046,1.29232 5.35014,1.6389 2.59968,0.34658 5.99556,1.11517 7.54641,1.70798 1.55084,0.5928 4.18797,1.03892 5.86029,0.99138 2.20968,-0.0628 3.17894,0.44266 3.54691,1.8498 0.27849,1.06494 0.88712,1.93625 1.35253,1.93625 0.4654,0 1.05582,10.0125 1.31205,22.25 0.25623,12.2375 0.50421,23.4875 0.55107,25 0.0469,1.5125 0.0839,3.7625 0.0824,5 -0.002,1.2375 0.33599,8.325 0.75014,15.75 0.85894,15.39934 1.69373,17.53883 9.87272,25.30292 l 4.85225,4.60608 -2.5,2.42586 c -2.82109,2.73742 -5.59125,3.42263 -11.75,2.90639 z M 60.875,593.47023 c -2.125634,-0.32679 -1.79862,-1.17857 -4.00545,-1.17857 -2.23325,0 -4.67753,-0.66512 -5.51241,-1.5 -1.33333,-1.33333 -1.33333,-1.66667 0,-3 0.825,-0.825 2.47521,-1.5 3.66714,-1.5 3.41387,0 7.59936,-2.98755 9.36101,-6.68177 C 65.42503,577.42952 66,573.56529 66,568.75773 c 0,-4.31071 0.42263,-7.46607 1,-7.46607 1.2751,0 1.36413,-31.6999 0.0903,-32.16667 -0.50841,-0.1863 -1.05978,-13.67618 -1.25,-30.58276 -0.24279,-21.57928 -0.66352,-30.2496 -1.46789,-30.25 -0.62016,-3.2e-4 -1.66744,-0.65108 -2.32728,-1.44615 -0.65985,-0.79507 -3.63995,-1.99167 -6.62245,-2.65913 C 50.41643,463.06659 50,462.75524 50,460.13253 c 0,-2.38301 0.41352,-2.84087 2.56574,-2.84087 1.41116,0 3.35768,-0.42383 4.32561,-0.94185 2.50172,-1.33888 96.95442,-1.61238 98.28222,-0.28458 1.54799,1.54799 -0.0292,5.22643 -2.24096,5.22643 -1.06293,0 -1.93261,0.45 -1.93261,1 0,0.55 -0.5625,1.00719 -1.25,1.01597 -0.6875,0.009 -2.81718,1.39695 -4.73263,3.0848 l -3.48263,3.06882 0.31278,54.16521 c 0.18331,31.74411 0.69354,54.30318 1.23263,54.49853 0.50592,0.18334 0.91985,0.77798 0.91985,1.32143 0,1.61211 2.56845,3.69882 5.43972,4.41947 2.04063,0.51216 3.17357,0.1446 4.74139,-1.53826 1.77914,-1.90967 1.89593,-2.57147 0.85646,-4.85286 -1.75329,-3.84804 -2.43507,-26.31942 -1.06746,-35.18311 0.63647,-4.125 1.39505,-9.75 1.68573,-12.5 0.29069,-2.75 0.93705,-5.4275 1.43635,-5.95 0.49929,-0.5225 0.90781,-2.63344 0.90781,-4.69098 0,-2.05754 0.38935,-3.98162 0.86522,-4.27572 0.47587,-0.2941 1.11103,-2.04951 1.41147,-3.90092 0.30044,-1.8514 2.10901,-6.69982 4.01904,-10.77428 C 169.74605,488.5732 172,483.15056 172,481.66454 c 0,-0.75508 0.45,-1.37288 1,-1.37288 0.55,0 1,-0.66131 1,-1.46958 0,-0.80827 0.9,-3.07196 2,-5.03042 1.1,-1.95846 2,-4.59099 2,-5.85008 0,-3.07025 -4.31052,-6.64992 -8.00761,-6.64992 -3.25387,0 -4.03934,-2.09591 -1.67248,-4.46277 2.05324,-2.05324 9.82022,-2.56789 42.42875,-2.81137 l 30.24867,-0.22586 0.001,2.21452 c 10e-4,2.00174 -3.79818,9.92787 -6.23986,13.01733 -0.53545,0.67751 -1.09005,8.32751 -1.23244,17 -0.14238,8.67248 -0.60306,18.39513 -1.02373,21.60588 -0.46199,3.52619 -0.34794,7.28787 0.28802,9.5 1.6179,5.62767 3.49477,36.56713 2.24356,36.9842 -1.32324,0.44108 -1.34829,3.86592 -0.0342,4.67807 0.55301,0.34178 1,4.86027 1,10.10868 0,11.4095 1.2619,14.47871 6.87653,16.72524 4.60804,1.84377 5.73507,3.22422 4.17096,5.10885 -1.27236,1.53311 -10.72533,2.34542 -33.04749,2.83986 -12.15859,0.26931 -14.6878,0.072 -15.663,-1.222 -0.95039,-1.26105 -0.44765,-2.2444 2.75,-5.37888 l 3.913,-3.8357 v -10.42303 c 0,-12.70391 -0.85497,-14.08511 -8.52644,-13.77455 -2.73546,0.11074 -6.43606,0.72916 -8.22356,1.37427 -3.12085,1.1263 -3.25,1.38759 -3.25,6.57509 0,2.97119 0.45,5.40217 1,5.40217 0.55,0 1,1.5375 1,3.41667 0,1.87916 0.51429,3.58809 1.14286,3.79762 1.18095,0.39365 1.65688,11.3193 0.54166,12.43452 -1.05726,1.05727 -13.27033,0.64323 -15.45096,-0.52381 -2.60534,-1.39434 -8.89911,-1.47516 -9.73356,-0.125 -0.33992,0.55 -3.93992,1 -8,1 -4.06008,0 -7.66008,0.45 -8,1 -0.33992,0.55 -4.38992,1 -9,1 -4.61008,0 -8.66008,-0.45 -9,-1 -0.85901,-1.38991 -41.615243,-0.0489 -46.93652,0.10408 -3.906265,-0.23336 -12.146545,-0.0325 -17.118857,-0.17013 -2.039192,-0.0564 -4.153745,0.72228 -4.569303,0.24462 z m 50.34328,-14.15081 c 0.97995,-0.80973 1.78172,-2.72223 1.78172,-4.25 0,-1.52777 0.46207,-2.77776 1.02681,-2.77776 0.66037,0 0.94175,-4.46095 0.78845,-12.5 -0.13111,-6.875 -0.59318,-12.5 -1.02682,-12.5 0.0915,-3.84094 0.0384,-3.84865 0.21156,-7 -0.55,0 -1,-2.38529 -1,-5.30064 0,-2.91534 -0.5625,-6.51183 -1.25,-7.99219 -1.09304,-2.35359 -1.83254,-2.69255 -5.88922,-2.69937 -3.08727,-0.005 -5.42896,0.63179 -7,1.90411 -2.35715,1.90897 -2.36069,1.94629 -2.30278,24.29228 l 0.058,22.38036 4.942,5.05406 c 5.17383,5.29113 4.973,5.26226 9.66028,1.38915 z M 201,541.79166 c 0,-0.825 0.3822,-1.5 0.84933,-1.5 0.46713,0 1.20442,-4.8375 1.63843,-10.75 0.88146,-12.00825 0.8772,-14.22666 -0.0499,-26 -0.7056,-8.96065 -2.20028,-10.66721 -4.59816,-5.25 -0.73036,1.65 -1.66808,3 -2.08382,3 -0.41574,0 -0.75589,1.125 -0.75589,2.5 0,1.375 -0.45,2.5 -1,2.5 -0.55,0 -1,0.67721 -1,1.5049 0,0.8277 -1.125,3.83692 -2.5,6.68716 -1.375,2.85023 -2.5,5.77303 -2.5,6.49509 0,0.72207 -0.45,1.31285 -1,1.31285 -0.55,0 -1,1.32344 -1,2.94098 0,1.61754 -0.38715,3.18026 -0.86033,3.4727 -1.19155,0.73642 -2.25907,9.26242 -1.52562,12.18472 0.57266,2.28166 0.99687,2.4016 8.49436,2.4016 6.34808,0 7.89159,-0.29338 7.89159,-1.5 z m -89.69711,-38.85152 c 1.52006,-3.23732 1.74345,-5.78886 1.40084,-16 -0.59615,-17.76771 -2.06713,-21.64848 -8.20571,-21.64848 -4.10988,0 -6.79068,2.46106 -8.29605,7.61602 -2.21857,7.59727 -0.88159,31.68603 1.85751,33.46717 0.79229,0.51519 3.68927,0.81974 6.43774,0.67676 4.72598,-0.24584 5.09538,-0.469 6.80567,-4.11147 z M 19.25,422.58461 C 18.48181,422.30215 18,420.22987 18,417.20833 v -4.91667 h 5.5 c 3.025,0 5.50169,-0.3375 5.50375,-0.75 0.002,-0.4125 1.95545,-1.55246 4.34087,-2.53324 2.38542,-0.98078 6.09623,-3.39432 8.24625,-5.36342 L 45.5,400.06482 46,388.92824 c 0.35202,-7.84053 1.01794,-12.14394 2.25,-14.54022 0.566226,-3.2658 1.217287,-6.27386 2.82163,-8.76799 0.70322,-0.70322 0.86263,-4.4677 0.4637,-10.95 -1.23396,-20.05051 -1.53315,-46.37837 -0.52704,-46.37837 0.437001,-1.99023 1.197176,-4.28361 2.24171,-6.14422 1,-1.69367 1,-2.20762 0,-2.56977 -0.6875,-0.24897 -1.25,-1.22518 -1.25,-2.16934 0,-0.94417 -0.42426,-2.14417 -0.9428,-2.66667 -0.51854,-0.5225 -1.14114,-6.575 -1.38355,-13.45 -0.64686,-18.34553 -4.19174,-43.49088 -6.90781,-49 -2.19134,-4.4448 -8.72901,-12 -10.38384,-12 -1.25344,0 -11.67357,-5.29703 -13.132,-6.67559 -2.5193,-2.38135 -0.22583,-6.32441 3.67857,-6.32441 1.13929,0 2.07143,-0.3772 2.07143,-0.83822 0,-1.63177 19.84298,-3.14203 46.36656,-3.52899 17.75861,-0.25909 27.0929,-0.75819 27.53421,-1.47224 0.44507,-0.72013 11.49143,-1.25247 33.13344,-1.59678 17.85619,-0.28407 38.26665,-0.77877 45.35659,-1.09933 8.50051,-0.38435 13.25153,-0.22211 13.95,0.47636 0.58256,0.58256 1.8692,1.0592 2.8592,1.0592 0.99,0 1.8,0.45 1.8,1 0,0.55 0.53831,1 1.19625,1 3.26336,0 16.80375,11.88513 16.80375,14.74956 0,0.68774 0.50246,1.25044 1.11658,1.25044 0.65246,0 0.91748,1.04149 0.63759,2.50564 -0.44112,2.30758 0.0343,3.23009 4.22729,8.20215 0.5602,0.66429 1.01854,1.48393 1.01854,1.82143 0,1.01496 2.77974,3.47078 3.92857,3.47078 0.58929,0 1.07143,0.45 1.07143,1 0,0.55 0.49037,1 1.08971,1 1.7398,0 4.84067,4.29173 4.87702,6.75 0.0183,1.2375 0.39101,2.25 0.82825,2.25 0.43724,0 1.63005,2.025 2.6507,4.5 1.02064,2.475 2.2379,4.5 2.70502,4.5 0.46711,0 0.8493,0.87344 0.8493,1.94098 0,1.06754 0.36089,2.16403 0.80197,2.43663 0.44109,0.27261 1.4302,2.80268 2.19803,5.62239 0.76783,2.81971 1.75694,5.34978 2.19803,5.62239 0.44108,0.2726 0.80197,1.39143 0.80197,2.48629 0,2.55459 2.76254,7.92544 5.14801,10.00862 1.28389,1.12118 1.85199,2.98491 1.85199,6.07568 0,3.48902 0.5559,4.98063 2.5567,6.86029 2.52485,2.37197 2.55004,2.54545 2.02203,13.92431 -0.29408,6.33733 -0.60667,13.09742 -0.69465,15.02242 -0.088,1.925 -0.0643,4.4 0.0526,5.5 0.36949,3.47713 -1.96151,11.65862 -5.05331,17.73643 -0.48583,0.95504 -0.88333,2.64254 -0.88333,3.75 0,1.10746 -0.45,2.01357 -1,2.01357 -0.55,0 -1,0.9143 -1,2.03178 0,1.11749 -1.575,5.27842 -3.5,9.24652 -1.925,3.96811 -3.5,7.77881 -3.5,8.46822 0,0.68941 -0.45,1.25348 -1,1.25348 -0.55,0 -1,0.61901 -1,1.37557 0,0.75656 -1.15308,4.01906 -2.5624,7.25 -1.40932,3.23094 -3.09417,7.11193 -3.74411,8.62443 -0.64994,1.5125 -1.52186,2.75 -1.9376,2.75 -0.41574,0 -0.75589,0.77556 -0.75589,1.72347 0,1.97591 -13.07203,14.84723 -16.03326,15.78709 -1.08175,0.34332 -1.96678,1.04389 -1.96678,1.55683 0,0.51293 -0.87344,0.93261 -1.94098,0.93261 -1.06754,0 -2.2191,0.45 -2.55902,1 -0.33992,0.55 -1.49148,1 -2.55902,1 -1.06754,0 -1.94098,0.38657 -1.94098,0.85904 0,0.47248 -3.7125,1.12793 -8.25,1.45657 -4.5375,0.32863 -14.325,1.33665 -21.75,2.24002 -11.07794,1.34783 -25.96911,1.69225 -83,1.91972 -38.225,0.15246 -70.0625,0.0704 -70.75,-0.1824 z M 143,395.29166 c 0,-0.55 0.68111,-1 1.51357,-1 0.83246,0 2.50418,-0.5625 3.71493,-1.25 3.00452,-1.70606 9.7715,-8.43112 9.7715,-9.71097 0,-0.57147 0.45,-1.03903 1,-1.03903 0.55,0 1,-0.70502 1,-1.56672 0,-1.53515 4.77135,-8.60944 6.25,-9.26661 0.4125,-0.18334 0.75,-1.19584 0.75,-2.25 0,-1.05417 0.35328,-1.91667 0.78507,-1.91667 0.4318,0 2.1193,-2.5875 3.75,-5.75 1.63071,-3.1625 3.30243,-5.9 3.71493,-6.08333 0.4125,-0.18334 0.75,-1.19584 0.75,-2.25 0,-1.05417 0.41425,-1.91667 0.92054,-1.91667 0.5063,0 1.21593,-1.34484 1.57694,-2.98853 0.36102,-1.6437 1.07177,-3.24525 1.57946,-3.55902 0.50768,-0.31377 0.92306,-1.57893 0.92306,-2.81147 0,-1.23254 0.48893,-2.72991 1.08651,-3.32749 0.7017,-0.7017 0.87171,-3.69439 0.48002,-8.45 -0.33356,-4.04992 -0.97343,-12.98849 -1.42191,-19.86349 -0.85262,-13.07 -2.91466,-25 -4.32113,-25 -0.45292,0 -0.82349,-0.9 -0.82349,-2 0,-1.1 -0.45,-2 -1,-2 -0.55,0 -1,-0.54704 -1,-1.21565 0,-0.66861 -2.09861,-3.3463 -4.66358,-5.95043 -4.06503,-4.12709 -4.49041,-4.94344 -3.31431,-6.36057 0.85495,-1.03014 0.9845,-1.87264 0.3536,-2.29956 C 162.13824,262.59793 158,258.85692 158,257.89373 c 0,-0.6383 -0.9,-1.80924 -2,-2.60207 -1.1,-0.79284 -2.0039,-2.35468 -2.00867,-3.47076 -0.005,-1.11608 -1.57977,-3.6867 -3.5,-5.71249 C 148.5711,244.08263 147,242.15049 147,241.81477 c 0,-0.33572 -1.125,-1.82366 -2.5,-3.30654 -1.375,-1.48287 -2.5,-3.49948 -2.5,-4.48135 0,-1.18631 -1.01343,-1.98791 -3.02081,-2.38938 -1.66144,-0.33229 -3.263,-0.99604 -3.55902,-1.475 C 134.67158,228.95124 129,229.06534 129,230.29166 c 0,0.55 -1.07252,1 -2.38337,1 -1.37936,0 -2.6309,0.7372 -2.97097,1.75 -0.32318,0.9625 -0.98072,2.425 -1.4612,3.25 -3.03042,5.20328 -3.17234,6.68062 -3.09382,32.20438 0.0444,14.43604 0.46138,26.95856 0.92659,27.82781 0.46521,0.86925 1.11382,13.25511 1.44136,27.52413 0.69286,30.18428 2.4793,58.44368 3.69457,58.44368 0.46576,0 0.84684,1.16803 0.84684,2.59563 0,3.24107 3.23165,7.88565 6.79439,9.765 3.14785,1.6605 10.20561,2.10266 10.20561,0.63937 z m 99.17411,25.40776 c 0.27388,-2.34344 1.1238,-3.07058 5.32589,-4.5565 2.75,-0.97245 7.1375,-1.7868 9.75,-1.80967 2.6125,-0.0229 4.75,-0.49159 4.75,-1.04159 0,-0.55 1.33792,-1 2.97316,-1 3.78279,0 11.22418,-4.08463 12.51397,-6.869 0.54292,-1.17205 1.33042,-2.131 1.75,-2.131 0.41958,0 0.76287,-1.125 0.76287,-2.5 0,-1.375 0.45,-2.5 1,-2.5 0.55,0 1,-1.32344 1,-2.94098 0,-1.61754 0.40668,-3.19233 0.90374,-3.49953 3.02406,-1.86897 1.08554,-60.55949 -2.00025,-60.55949 -1.23769,0 -1.149,-8.73023 0.0965,-9.5 0.55,-0.33992 1,-3.96648 1,-8.05902 10e-6,-4.29399 -0.42292,-7.44098 -0.99999,-7.44098 -0.55,0 -1,-2.025 -1,-4.5 0,-2.475 0.45,-4.5 1,-4.5 0.60282,0 1,-4.14699 1,-10.44098 0,-5.88197 0.43665,-10.71085 1,-11.05902 0.55,-0.33992 1,-3.74148 1,-7.55902 0,-3.96065 -0.42938,-6.94098 -1,-6.94098 -0.55445,0 -1,-2.64699 -1,-5.94098 0,-3.26754 -0.45,-6.2191 -1,-6.55902 -0.55,-0.33992 -1,-3.44734 -1,-6.90538 0,-7.28706 -1.71785,-11.39442 -6.2998,-15.06271 -1.76011,-1.40913 -3.74371,-3.00528 -4.40799,-3.54699 -0.66429,-0.5417 -1.51151,-0.98492 -1.88271,-0.98492 -0.3712,0 -1.40269,-0.78928 -2.2922,-1.75395 -1.83576,-1.99087 -8.44485,-5.24605 -10.65123,-5.24605 -0.80634,0 -1.46607,-0.45 -1.46607,-1 0,-0.55 -2.475,-1 -5.5,-1 -4.71377,0 -5.5,-0.2684 -5.5,-1.87756 0,-1.03265 0.58519,-2.36322 1.30042,-2.95681 0.77536,-0.64348 8.95169,-1.29175 20.25,-1.60553 10.42227,-0.28946 25.24958,-0.73458 32.94958,-0.98917 63.85043,-2.11111 116.07492,-2.75561 131,-1.61667 8.8,0.67154 16.5625,1.68665 17.25,2.2558 1.48944,1.23305 1.67509,4.78994 0.25,4.78994 -0.55,0 -1,1.35 -1,3 0,1.65 -0.36782,3 -0.81738,3 -0.97787,0 -4.18262,9.79125 -4.18262,12.77887 0,1.1567 -0.45,2.38121 -1,2.72113 -0.55,0.33992 -1,1.48633 -1,2.54759 0,2.07789 -1.83294,4.71729 -6.35576,9.15218 -2.5264,2.47728 -3.5932,2.80023 -9.25,2.80023 -3.51683,0 -6.39424,-0.41968 -6.39424,-0.93261 0,-0.51294 -0.7875,-1.18967 -1.75,-1.50385 -0.9625,-0.31418 -3.94064,-2.59451 -6.61809,-5.06739 -2.67745,-2.47288 -5.1801,-4.49615 -5.56144,-4.49615 -0.38134,0 -1.5657,-0.7875 -2.63191,-1.75 -1.06621,-0.9625 -3.28856,-2.42428 -4.93856,-3.24841 -1.65,-0.82412 -3.225,-1.75399 -3.5,-2.06638 -1.26842,-1.44085 -11.63978,-5.93521 -13.69634,-5.93521 -1.26701,0 -2.30366,-0.45 -2.30366,-1 0,-0.55 -2.475,-1 -5.5,-1 -3.025,0 -5.5,0.45 -5.5,1 0,0.55 -1.31796,1 -2.9288,1 -1.93255,0 -4.09797,1.1055 -6.36599,3.25 l -3.43719,3.25 0.40771,22 c 0.43433,23.43677 1.4082,28.5 5.48174,28.5 1.01339,0 1.84253,0.4181 1.84253,0.9291 0,0.51101 2.5875,1.46917 5.75,2.12925 4.40344,0.91908 8.92372,0.93569 19.30224,0.0709 24.1602,-2.01315 38.18926,-0.8285 41.46868,3.50173 1.60192,2.11522 1.90394,5.50071 0.61725,6.91903 -0.47401,0.5225 -1.3248,2.75 -1.89065,4.95 -1.2312,4.78685 -4.52481,13.79831 -5.29962,14.5 -0.30366,0.275 -1.29519,2.09881 -2.2034,4.05292 -1.4884,3.20243 -4.96643,7.27432 -9.13699,10.69708 -1.81333,1.48818 -7.60751,1.67859 -7.60751,0.24999 0,-0.55 -0.72794,-1 -1.61765,-1 -1.70451,0 -9.38235,-7.10814 -9.38235,-8.68619 0,-1.33328 -6.37613,-7.31381 -7.79761,-7.31381 -0.66131,0 -1.20239,-0.40114 -1.20239,-0.89142 0,-1.68186 -8.04223,-4.10858 -13.61594,-4.10858 -7.41402,0 -10.65099,1.99603 -12.30135,7.58546 -0.97665,3.30769 -1.02237,5.14888 -0.18733,7.54427 0.65894,1.89023 1.10462,10.97621 1.10462,22.51949 0,12.23385 0.36779,19.35078 1,19.35078 0.61084,0 1,4.64699 1,11.94098 0,6.88197 -0.42367,12.20283 -1,12.55902 -0.55,0.33992 -1,3.06648 -1,6.05902 0,2.99254 0.45,5.44098 1,5.44098 0.55,0 1,0.83864 1,1.86364 0,2.26149 4.39178,6.84017 7.35105,7.66389 1.18192,0.329 3.04895,0.96386 4.14895,1.41081 1.1,0.44695 3.25867,1.31867 4.79705,1.93715 1.53838,0.61848 4.32432,1.12451 6.19099,1.12451 1.86666,0 3.67204,0.45 4.01196,1 0.33992,0.55 2.57898,1 4.97568,1 2.59515,0 4.52776,0.50558 4.77823,1.25 0.76988,2.28816 -0.46697,4.76599 -2.6234,5.25559 -3.78726,0.85987 -69.68615,2.07886 -85.63051,1.58398 -4.675,-0.1451 -20.57165,0.0445 -35.32589,0.4214 l -26.82589,0.68521 z"
       id="path96"
       inkscape:connector-curvature="0"
       sodipodi:nodetypes="ccssscscsccsccccssscsscsssssssccccccscssscssccssssssscssscccssssssssccssscsscsscsscssscccsssscscscscscccsccscccssccscccccsssscsscsccssssssscccscsccccccssssssssssssccccccscsscscscsscsssccscsssccsccsscccssccsccccssccsssscssscsscccsscccccscscsscsccccccssscscssscscssssssscsssscscsscscscscccccssssssssssscsssssccscsssssscssccssccssccsssssccscccscsccssscssssscscccsscssssssccsssscsssssccscsssscssscsssssssssssssccsssssscssscsscscccsssssscsssscssscssssssssccc" />
  </g>
</svg>
