<?xml version="1.0" encoding="UTF-8" standalone="no"?>
<svg
   xmlns:dc="http://purl.org/dc/elements/1.1/"
   xmlns:cc="http://creativecommons.org/ns#"
   xmlns:rdf="http://www.w3.org/1999/02/22-rdf-syntax-ns#"
   xmlns:svg="http://www.w3.org/2000/svg"
   xmlns="http://www.w3.org/2000/svg"
   xmlns:xlink="http://www.w3.org/1999/xlink"
   xmlns:sodipodi="http://sodipodi.sourceforge.net/DTD/sodipodi-0.dtd"
   xmlns:inkscape="http://www.inkscape.org/namespaces/inkscape"
   width="64px"
   height="64px"
   id="svg2985"
   version="1.1"
   inkscape:version="1.0.1 (0767f8302a, 2020-10-17)"
   sodipodi:docname="le_icon_black_grad_64x64.svg">
  <defs
     id="defs2987">
    <linearGradient
       id="linearGradient4931">
      <stop
         style="stop-color:#ff0000;stop-opacity:1;"
         offset="0"
         id="stop4933" />
      <stop
         id="stop4939"
         offset="0.60416669"
         style="stop-color:#ff8000;stop-opacity:1;" />
      <stop
         style="stop-color:#ffff00;stop-opacity:1;"
         offset="1"
         id="stop4935" />
    </linearGradient>
    <linearGradient
       inkscape:collect="always"
       xlink:href="#linearGradient4931"
       id="linearGradient4937"
       x1="0"
       y1="34"
       x2="60"
       y2="34"
       gradientUnits="userSpaceOnUse" />
    <linearGradient
       inkscape:collect="always"
       xlink:href="#linearGradient4931"
       id="linearGradient4942"
       gradientUnits="userSpaceOnUse"
       x1="25"
       y1="4"
       x2="35"
       y2="64" />
  </defs>
  <sodipodi:namedview
     id="base"
     pagecolor="#ffffff"
     bordercolor="#666666"
     borderopacity="1.0"
     inkscape:pageopacity="0.0"
     inkscape:pageshadow="2"
     inkscape:zoom="5.5"
     inkscape:cx="22.792947"
     inkscape:cy="24.727273"
     inkscape:current-layer="layer2"
     showgrid="true"
     inkscape:document-units="px"
     inkscape:grid-bbox="true"
     inkscape:window-width="1102"
     inkscape:window-height="712"
     inkscape:window-x="60"
     inkscape:window-y="27"
     inkscape:window-maximized="0"
     inkscape:document-rotation="0">
    <inkscape:grid
       type="xygrid"
       id="grid2993" />
  </sodipodi:namedview>
  <metadata
     id="metadata2990">
    <rdf:RDF>
      <cc:Work
         rdf:about="">
        <dc:format>image/svg+xml</dc:format>
        <dc:type
           rdf:resource="http://purl.org/dc/dcmitype/StillImage" />
        <dc:title />
      </cc:Work>
    </rdf:RDF>
  </metadata>
  <g
     inkscape:groupmode="layer"
     id="layer2"
     inkscape:label="foreground_mask">
    <rect
       style="fill:url(#linearGradient4942);fill-opacity:1;stroke:none"
       id="rect4928"
       width="60"
       height="60"
       x="0"
       y="4" />
  </g>
  <g
     id="layer1"
     inkscape:label="Layer 1"
     inkscape:groupmode="layer">
    <path
       style="fill:#000000;stroke:none;stroke-width:1px;stroke-linecap:butt;stroke-linejoin:miter;stroke-opacity:1;fill-opacity:1"
       d="m 0,4 30,0 0,5 -15,0 0,5 -5,0 0,35 5,0 0,5 30,0 0,-5 5,0 0,-35 -5,0 0,-5 -15,0 0,-5 30,0 0,60 -60,0 z"
       id="path4898"
       inkscape:connector-curvature="0" />
    <path
       style="fill:#000000;stroke:none;stroke-width:1px;stroke-linecap:butt;stroke-linejoin:miter;stroke-opacity:1;fill-opacity:1"
       d="m 15,29 0,15 5,0 0,5 10,0 0,-5 -5,0 0,-5 -5,0 0,-5 20,0 0,5 -5,0 0,5 -5,0 0,5 10,0 0,-5 5,0 0,-25 -5,0 0,-5 -5,0 0,10 5,0 0,5 -5,0 0,-15 -10,0 0,15 -5,0 0,-5 5,0 0,-10 -5,0 0,5 -5,0 z"
       id="path4902"
       inkscape:connector-curvature="0" />
  </g>
</svg>
