<?xml version="1.0" encoding="UTF-8" standalone="no"?>
<svg
   xmlns:dc="http://purl.org/dc/elements/1.1/"
   xmlns:cc="http://creativecommons.org/ns#"
   xmlns:rdf="http://www.w3.org/1999/02/22-rdf-syntax-ns#"
   xmlns:svg="http://www.w3.org/2000/svg"
   xmlns="http://www.w3.org/2000/svg"
   xmlns:xlink="http://www.w3.org/1999/xlink"
   xmlns:sodipodi="http://sodipodi.sourceforge.net/DTD/sodipodi-0.dtd"
   xmlns:inkscape="http://www.inkscape.org/namespaces/inkscape"
   width="180"
   height="180"
   id="svg2985"
   version="1.1"
   inkscape:version="1.0.1 (0767f8302a, 2020-10-17)"
   sodipodi:docname="le_icon.svg"
   inkscape:export-xdpi="90"
   inkscape:export-ydpi="90">
  <defs
     id="defs2987">
    <linearGradient
       id="linearGradient4931">
      <stop
         style="stop-color:#ff0000;stop-opacity:1;"
         offset="0"
         id="stop4933" />
      <stop
         id="stop4939"
         offset="0.60416669"
         style="stop-color:#ff8000;stop-opacity:1;" />
      <stop
         style="stop-color:#ffff00;stop-opacity:1;"
         offset="1"
         id="stop4935" />
    </linearGradient>
    <linearGradient
       inkscape:collect="always"
       xlink:href="#linearGradient4931"
       id="linearGradient4942"
       gradientUnits="userSpaceOnUse"
       x1="25"
       y1="4"
       x2="35"
       y2="64"
       gradientTransform="matrix(3,0,0,3,0,-128)" />
  </defs>
  <sodipodi:namedview
     id="base"
     pagecolor="#ffffff"
     bordercolor="#666666"
     borderopacity="1.0"
     inkscape:pageopacity="0.0"
     inkscape:pageshadow="2"
     inkscape:zoom="1.9445436"
     inkscape:cx="59.801765"
     inkscape:cy="85.233482"
     inkscape:current-layer="g4964"
     showgrid="true"
     inkscape:document-units="px"
     inkscape:grid-bbox="true"
     inkscape:window-width="1102"
     inkscape:window-height="712"
     inkscape:window-x="60"
     inkscape:window-y="27"
     inkscape:window-maximized="0"
     inkscape:document-rotation="0">
    <inkscape:grid
       type="xygrid"
       id="grid2993"
       empspacing="5"
       visible="true"
       enabled="true"
       snapvisiblegridlinesonly="true" />
  </sodipodi:namedview>
  <metadata
     id="metadata2990">
    <rdf:RDF>
      <cc:Work
         rdf:about="">
        <dc:format>image/svg+xml</dc:format>
        <dc:type
           rdf:resource="http://purl.org/dc/dcmitype/StillImage" />
        <dc:title />
      </cc:Work>
    </rdf:RDF>
  </metadata>
  <g
     inkscape:groupmode="layer"
     id="layer2"
     inkscape:label="foreground_mask"
     transform="translate(0,116)">
    <rect
       style="fill:url(#linearGradient4942);fill-opacity:1;stroke:none"
       id="rect4928"
       width="180"
       height="180"
       x="0"
       y="-116" />
  </g>
  <g
     id="layer1"
     inkscape:label="bg_mask_grey"
     inkscape:groupmode="layer"
     transform="translate(0,116)">
    <path
       style="fill:#f3f3f3;fill-opacity:1;stroke:none"
       d="m 0,-116 90,0 0,15 -45,0 0,15 -15,0 0,105 15,0 0,15 90,0 0,-15 15,0 0,-105 -15,0 0,-15 -45,0 0,-15 90,0 0,180 -180,0 z"
       id="path4898"
       inkscape:connector-curvature="0" />
    <path
       style="fill:#f3f3f3;fill-opacity:1;stroke:none"
       d="m 45,-41 0,45 15,0 0,15 30,0 0,-15 -15,0 0,-15 -15,0 0,-15 60,0 0,15 -15,0 0,15 -15,0 0,15 30,0 0,-15 15,0 0,-75 -15,0 0,-15 -15,0 0,30 15,0 0,15 -15,0 0,-45 -30,0 0,45 -15,0 0,-15 15,0 0,-30 -15,0 0,15 -15,0 z"
       id="path4902"
       inkscape:connector-curvature="0" />
  </g>
  <g
     transform="translate(0,116)"
     inkscape:groupmode="layer"
     inkscape:label="bg_mask_black"
     id="g4964">
    <path
       inkscape:connector-curvature="0"
       id="path4966"
       d="m 0,-116 90,0 0,15 -45,0 0,15 -15,0 0,105 15,0 0,15 90,0 0,-15 15,0 0,-105 -15,0 0,-15 -45,0 0,-15 90,0 0,180 -180,0 z"
       style="fill:#000000;fill-opacity:1;stroke:none" />
    <path
       inkscape:connector-curvature="0"
       id="path4968"
       d="M 45,-41 V 4 H 60 V 19 H 90 V 4 H 75 V -11 H 60 v -15 h 60 v 15 H 105 V 4 H 90 v 15 h 30 V 4 h 15 v -75 h -15 v -15 h -15 v 30 h 15 v 15 H 105 V -86 H 75 v 45 H 60 V -56 H 75 V -86 H 60 v 15 H 45 Z"
       style="fill:#000000;fill-opacity:1;stroke:none" />
  </g>
</svg>
